<svg xmlns="http://www.w3.org/2000/svg" width="62" height="22" viewBox="0 0 63 22" fill="none"
    class="">
    <g clip-path="url(#clip0_645_69246)">
        <path
            d="M59.6268 0.763519V17.9174C59.6268 18.9456 59.1788 19.3427 58.1506 19.3427H55.2696H49.9452C48.4386 19.251 47.1456 18.9049 46.3516 17.5407C45.7815 16.5736 45.6015 15.4741 45.4692 14.3848H57.2781C57.2475 11.7888 56.843 9.45807 54.7967 7.3711C52.7098 5.24341 48.7161 5.01944 46.0997 6.86208C42.9947 9.05086 42.31 12.756 43.0328 16.2275C43.8065 19.9229 46.1174 21.9081 50.0674 21.9081H58.2931C61.1742 21.9081 62.3653 20.6457 62.3653 18.0803V0.763519H59.6369H59.6268ZM50.4497 8.10232C52.8726 8.25502 54.4988 10.048 54.5701 12.2877H45.5302C45.9985 9.45754 47.4363 7.89871 50.4497 8.10232Z"
            fill="black"></path>
        <path
            d="M42.6142 8.22565V5.67038L15.9824 5.61948V8.0424H22.9356C23.017 8.0424 23.0883 8.0424 23.1697 8.06276C23.3835 8.10348 23.6177 8.16456 23.6991 8.18492C25.1345 8.62268 25.0836 10.0683 25.0531 11.3205C21.6834 12.1145 15.7584 12.0026 14.8218 16.2783C14.2517 18.8743 15.6668 21.175 18.1814 21.9182C20.5737 22.6207 23.6686 21.9793 25.104 19.8312V21.8775H27.588V10.1599C27.588 9.58981 27.5269 9.00953 27.3946 8.44961L27.2724 7.92024H39.3158C39.3361 8.01186 39.275 8.03222 39.2343 8.08312C39.0307 8.34781 38.7558 8.63286 38.5319 8.88737C35.5287 12.2978 32.4542 15.6573 29.4815 19.0983V21.8164H42.7669V19.5564H32.6171L42.6142 8.21547V8.22565ZM25.0633 16.3597C25.0633 17.6425 23.8111 18.8539 22.7218 19.3629C20.6654 20.3097 17.1735 20.0145 17.3873 17.0622C17.5094 15.4639 19.0772 14.8632 20.4108 14.5273C21.9277 14.1608 23.526 13.9674 25.0531 13.6416V16.3597H25.0633Z"
            fill="black"></path>
        <path
            d="M13.3914 11.3665C13.3914 6.56133 8.96294 4.99355 5.42017 5.88942C4.15781 6.20501 3.2314 6.87692 2.90563 7.27395V0.743256H0.116211V21.9184H2.90563V12.5576C2.90563 11.8755 2.99725 10.9287 3.27212 10.3688C4.69737 7.11106 10.5511 7.11106 10.6936 11.4683V21.9184H13.4016C13.4016 21.9184 13.4016 14.8278 13.4016 11.3563L13.3914 11.3665Z"
            fill="black"></path>
    </g>
    <defs>
        <clipPath id="clip0_645_69246">
            <rect width="62" height="22" fill="black" transform="translate(0 0.509125)"></rect>
        </clipPath>
    </defs>
</svg>